<svg width="51" height="50" viewBox="0 0 51 50" fill="none" xmlns="http://www.w3.org/2000/svg">
<path d="M49.032 30.8657C49.032 40.4291 42.3795 44.5683 34.1732 44.5683C25.9669 44.5683 19.3135 40.4291 19.3135 30.8657C19.3135 21.3033 25.966 12.8282 34.1732 12.8282C42.3795 12.8282 49.032 21.3033 49.032 30.8657Z" fill="#FFC004"/>
<path d="M44.2147 5.38011C42.9675 4.72503 39.8628 5.24313 37.3219 6.14607C36.6329 5.51243 35.7775 5.08472 34.8463 5.08472C33.7413 5.08472 32.7391 5.68482 32.0006 6.52253C29.3418 5.39874 25.5444 4.63837 24.1327 5.38011C22.5285 6.22435 24.6123 8.68904 27.2075 10.0542C28.7183 10.849 30.0682 11.0932 31.2499 10.9935C31.9501 11.7892 33.2972 12.0753 34.8463 12.0753C36.4216 12.0753 37.7884 11.7799 38.4774 10.9525C39.3 10.836 40.1882 10.5546 41.1389 10.0542C43.7341 8.68904 45.8189 6.22435 44.2147 5.38011Z" fill="#FFC004"/>
<path d="M38.884 13.3389C38.884 13.6958 38.5942 13.9856 38.2362 13.9856H30.1094C29.7513 13.9856 29.4615 13.6958 29.4615 13.3389V11.6159C29.4615 11.2581 29.7513 10.9692 30.1094 10.9692H38.2362C38.5942 10.9692 38.884 11.2581 38.884 11.6159V13.3389Z" fill="#719BF0"/>
<path d="M11.6588 38.4452C11.5148 38.4928 27.0093 36.5807 27.1944 40.6295C27.3272 43.5368 36.9143 44.3083 36.9143 44.3083C37.2191 44.3093 39.8339 44.504 39.8339 44.504L46.1293 40.4328C47.2605 39.201 49.2976 38.5813 50.5391 39.6837C51.5113 40.5447 49.6584 41.2379 48.5254 42.4698L41.5138 47.6993C41.3783 47.8474 40.7977 48.1018 39.8853 48.2332C35.8541 48.8212 32.5933 48.9964 25.8641 49.8919C23.7934 50.1677 22.1265 49.8667 21.4497 49.5387C18.8582 48.277 11.6569 48.2285 11.6569 48.2285L11.6588 38.4452Z" fill="#EACAB2"/>
<path d="M30.143 41.73C31.7529 42.6842 32.6625 42.6237 32.7616 42.6628L35.1371 40.5923C35.8878 39.7732 38.6045 39.4303 39.3562 40.2484C40.1087 41.0656 39.5572 41.1933 38.8046 42.0105L34.2032 45.8748C33.7806 46.3342 33.2113 46.5252 32.6606 46.4684C32.6017 46.4731 32.5475 46.488 32.4877 46.487L20.0913 47.0871C19.5304 47.0881 19.0115 46.897 18.5815 46.5737C16.3939 45.7211 14.8748 44.4864 14.8748 42.3534C14.8748 39.4088 17.7654 38.2217 21.33 38.2217C26.196 38.2198 27.4114 40.1114 30.143 41.73Z" fill="#FFDFC5"/>
<path d="M12.4159 38.0353H10.6359V48.5864H12.4159V38.0353Z" fill="white"/>
<path d="M0 37.4053L11.4942 37.4063L11.4933 49.1921H4.81551C2.52882 45.653 0.865689 41.6741 0 37.4053Z" fill="#719BF0"/>
<path d="M26.4602 19.4567H30.7407C32.0008 19.4567 32.9829 19.7461 33.687 20.3248C34.3912 20.8912 34.7433 21.7162 34.7433 22.7998C34.7433 23.514 34.558 24.142 34.1874 24.6838C33.8291 25.2256 33.335 25.6196 32.7049 25.8659L35.9848 30.428H33.1497L30.1848 26.1429H28.795V30.428H26.4602V19.4567ZM30.926 23.9819C31.9637 23.9819 32.4826 23.5879 32.4826 22.7998C32.4826 22.3688 32.3405 22.0733 32.0564 21.9133C31.7846 21.7532 31.3893 21.6731 30.8704 21.6731H28.795V23.9819H30.926Z" fill="white"/>
<path d="M37.008 33.6787V22.7629H39.2502V23.1692C39.6084 22.9476 39.9049 22.7937 40.1396 22.7075C40.3867 22.609 40.7203 22.5597 41.1403 22.5597C42.2521 22.5597 43.1724 22.9599 43.9013 23.7603C44.6425 24.5606 45.0131 25.5642 45.0131 26.7709C45.0131 27.953 44.6487 28.9442 43.9198 29.7446C43.191 30.5326 42.2706 30.9267 41.1588 30.9267C40.4794 30.9267 39.8432 30.7789 39.2502 30.4834V33.6787H37.008ZM39.1205 26.7524C39.1205 27.405 39.2872 27.916 39.6208 28.2854C39.9543 28.6548 40.4052 28.8395 40.9735 28.8395C41.5294 28.8395 41.9741 28.6487 42.3077 28.267C42.6412 27.8729 42.808 27.3558 42.808 26.7155C42.808 26.0998 42.6351 25.6011 42.2892 25.2194C41.9433 24.8254 41.4985 24.6284 40.955 24.6284C40.4238 24.6284 39.9852 24.8254 39.6393 25.2194C39.2934 25.6011 39.1205 26.1121 39.1205 26.7524Z" fill="white"/>
<path d="M24.0833 10.2188C24.0833 10.2188 24.1068 10.2773 24.1361 10.3708C24.1507 10.4176 24.1683 10.4761 24.18 10.5375C24.1859 10.5697 24.1947 10.6018 24.2035 10.6369C24.2093 10.6545 24.2006 10.6661 24.1859 10.6749C24.1742 10.6837 24.1712 10.6983 24.1625 10.71C24.0482 10.9176 23.8987 11.1895 23.7464 11.4644C23.594 11.7363 23.4416 12.0111 23.3302 12.2158C23.3244 12.2304 23.3127 12.2421 23.3127 12.2567C23.3127 12.2743 23.3039 12.283 23.2863 12.2889C23.2511 12.3006 23.2189 12.3123 23.1896 12.324C23.1281 12.3444 23.0724 12.359 23.0255 12.3737C22.9317 12.4 22.8702 12.4117 22.8702 12.4117C22.8702 12.4117 22.8497 12.3532 22.8204 12.2596C22.8057 12.2129 22.7911 12.1544 22.7764 12.0959C22.7676 12.0637 22.7588 12.0316 22.753 11.9965C22.7471 11.9789 22.753 11.9643 22.7647 11.9556C22.7735 11.9439 22.7793 11.9292 22.7881 11.9175C22.9024 11.7129 23.0519 11.438 23.2042 11.1632C23.3566 10.8884 23.509 10.6164 23.6203 10.4088C23.6262 10.3972 23.635 10.3825 23.6379 10.3679C23.6379 10.3533 23.6438 10.3387 23.6614 10.3358C23.6936 10.3241 23.7288 10.3124 23.7581 10.3007C23.8196 10.2802 23.8753 10.2656 23.9222 10.251C24.0159 10.2246 24.0804 10.213 24.0804 10.213L24.0833 10.2188Z" fill="#FFC004"/>
<path d="M22.7295 9.07841C22.7295 9.07841 22.7237 9.13981 22.7119 9.23922C22.7031 9.286 22.6943 9.3474 22.6768 9.40588C22.6709 9.43512 22.665 9.4702 22.6563 9.50529C22.6533 9.52283 22.6387 9.52868 22.624 9.5316C22.6094 9.53453 22.5976 9.5433 22.5859 9.55207C22.3955 9.68657 22.1347 9.86492 21.8797 10.0462C21.6218 10.2275 21.3669 10.4058 21.1735 10.5403C21.1618 10.5491 21.1501 10.5549 21.1413 10.5666C21.1325 10.5813 21.1208 10.5871 21.1032 10.5842C21.068 10.5813 21.0358 10.5754 21.0006 10.5725C20.9391 10.5637 20.8805 10.5549 20.8336 10.5462C20.7369 10.5286 20.6783 10.514 20.6783 10.514C20.6783 10.514 20.6841 10.4526 20.6988 10.3561C20.7076 10.3093 20.7193 10.2509 20.734 10.1895C20.7398 10.1602 20.7486 10.1251 20.7574 10.0901C20.7574 10.0725 20.7721 10.0608 20.7867 10.0579C20.8014 10.055 20.8101 10.0433 20.8219 10.0374C21.0153 9.90293 21.2731 9.72165 21.5281 9.5433C21.7859 9.36495 22.0438 9.18367 22.2343 9.04917C22.246 9.0404 22.2577 9.03455 22.2665 9.02286C22.2753 9.00824 22.2841 8.99947 22.3017 9.00239C22.3368 9.00532 22.372 9.01116 22.4042 9.01409C22.4658 9.01993 22.5244 9.03163 22.5742 9.0404C22.6709 9.05794 22.7295 9.07549 22.7295 9.07549V9.07841Z" fill="#FFC004"/>
<path d="M21.9852 7.52591C21.9852 7.52591 21.9501 7.57854 21.8915 7.65749C21.8622 7.69549 21.827 7.7452 21.783 7.78906C21.7596 7.81245 21.7391 7.83876 21.7156 7.86508C21.7039 7.8797 21.6922 7.8797 21.6746 7.87385C21.66 7.868 21.6453 7.87385 21.6307 7.87385C21.3962 7.90309 21.0856 7.93817 20.7721 7.97618C20.4615 8.01419 20.1479 8.0522 19.9164 8.07852C19.9018 8.07852 19.8871 8.07852 19.8725 8.08729C19.8578 8.09606 19.8461 8.09606 19.8314 8.08436C19.8021 8.0639 19.7758 8.04343 19.7494 8.02589C19.6966 7.9908 19.6498 7.95279 19.6117 7.92355C19.5355 7.86215 19.4915 7.82122 19.4915 7.82122C19.4915 7.82122 19.5237 7.77151 19.5824 7.69257C19.6117 7.65456 19.6498 7.60778 19.6908 7.561C19.7113 7.53468 19.7347 7.51129 19.7582 7.48498C19.7699 7.46744 19.7816 7.46744 19.7992 7.47328C19.8139 7.47328 19.8285 7.47328 19.8432 7.47036C20.0747 7.44405 20.3882 7.40604 20.6988 7.36803C21.0094 7.33002 21.32 7.29201 21.5545 7.26569C21.5691 7.26569 21.5838 7.26569 21.5984 7.25692C21.6101 7.24815 21.6248 7.24523 21.6394 7.25692C21.6687 7.27739 21.6951 7.29785 21.7215 7.3154C21.7742 7.35048 21.8211 7.38557 21.8592 7.41773C21.9354 7.47913 21.9823 7.52299 21.9823 7.52299L21.9852 7.52591Z" fill="#FFC004"/>
<path d="M22.1083 5.82132C22.1083 5.82132 22.0556 5.85933 21.9706 5.90903C21.9296 5.93242 21.8768 5.96459 21.8211 5.9909C21.7918 6.00552 21.7625 6.02014 21.7303 6.03768C21.7127 6.04645 21.701 6.04061 21.6893 6.03183C21.6776 6.02306 21.6629 6.02306 21.6483 6.01721C21.4226 5.95581 21.1208 5.87395 20.816 5.79208C20.5142 5.71021 20.2095 5.62835 19.9838 5.56402C19.9692 5.5611 19.9575 5.55525 19.9399 5.55525C19.9252 5.5611 19.9135 5.55525 19.9018 5.53771C19.8842 5.50847 19.8637 5.47923 19.8461 5.44999C19.8109 5.39736 19.7816 5.34473 19.7582 5.3038C19.7113 5.21609 19.6849 5.16346 19.6849 5.16346C19.6849 5.16346 19.7348 5.12837 19.8197 5.08159C19.8637 5.0582 19.9135 5.02604 19.9692 4.99972C19.9985 4.9851 20.0278 4.97048 20.06 4.95294C20.0776 4.94125 20.0923 4.94417 20.101 4.95586C20.1128 4.96464 20.1274 4.96464 20.1421 4.97048C20.3706 5.03188 20.6725 5.11375 20.9743 5.19854C21.2761 5.28041 21.5809 5.36228 21.8065 5.42368C21.8211 5.42368 21.8329 5.43245 21.8475 5.42952C21.8622 5.42952 21.8768 5.42953 21.8856 5.44414C21.9032 5.47338 21.9237 5.50262 21.9413 5.52894C21.9765 5.58156 22.0058 5.63419 22.0292 5.67805C22.0761 5.76284 22.1025 5.82132 22.1025 5.82132H22.1083Z" fill="#FFC004"/>
<path d="M22.9962 4.09625C22.9962 4.09625 22.9376 4.11087 22.8379 4.12842C22.7881 4.13426 22.7324 4.14596 22.668 4.14888C22.6357 4.14888 22.6006 4.15473 22.5654 4.15765C22.5478 4.15765 22.5361 4.14888 22.5302 4.13719C22.5215 4.12549 22.5097 4.11964 22.498 4.10795C22.3105 3.9676 22.0555 3.78048 21.8065 3.59628C21.5544 3.40623 21.3024 3.22203 21.112 3.08168C21.1002 3.07291 21.0915 3.06122 21.0768 3.05829C21.0622 3.05829 21.0504 3.0466 21.0475 3.02906C21.0416 2.99397 21.0328 2.95888 21.027 2.92965C21.0123 2.86824 21.0065 2.80977 20.9977 2.76006C20.983 2.66358 20.9801 2.60218 20.9801 2.60218C20.9801 2.60218 21.0387 2.58756 21.1354 2.57294C21.1823 2.56709 21.2409 2.55832 21.3054 2.55247C21.3376 2.55247 21.3698 2.54662 21.4079 2.5437C21.4284 2.54078 21.4372 2.54662 21.446 2.56124C21.4548 2.57294 21.4695 2.57879 21.4783 2.59048C21.6658 2.7279 21.9207 2.91503 22.1727 3.10215C22.4248 3.28928 22.6738 3.4764 22.8643 3.61382C22.876 3.62259 22.8877 3.63429 22.9024 3.63721C22.917 3.64014 22.9317 3.64598 22.9317 3.66645C22.9376 3.70154 22.9464 3.7337 22.9522 3.76586C22.9669 3.82726 22.9727 3.88574 22.9815 3.93544C22.9932 4.03193 22.9962 4.09625 22.9962 4.09625Z" fill="#FFC004"/>
<path d="M29.0912 3.91212C29.0912 3.91212 29.0854 3.85072 29.0912 3.75131C29.0912 3.70161 29.0942 3.64313 29.1 3.57881C29.1029 3.54664 29.1059 3.51448 29.1117 3.47647C29.1117 3.45893 29.1235 3.45016 29.1381 3.44723C29.1528 3.44139 29.1616 3.42969 29.1733 3.42092C29.3462 3.26596 29.5806 3.05252 29.8121 2.842C30.0436 2.63149 30.2751 2.42097 30.4509 2.26601C30.4626 2.25431 30.4743 2.24846 30.4831 2.23677C30.489 2.22215 30.4978 2.21338 30.5183 2.21338C30.5535 2.21338 30.5886 2.21338 30.6209 2.21338C30.6824 2.21338 30.7439 2.2163 30.7908 2.21923C30.8875 2.22507 30.9491 2.23385 30.9491 2.23385C30.9491 2.23385 30.9491 2.29525 30.9491 2.39173C30.9461 2.44144 30.9432 2.49991 30.9373 2.56131C30.9344 2.59348 30.9315 2.62564 30.9285 2.66365C30.9285 2.68412 30.9198 2.69289 30.9051 2.69581C30.8904 2.70166 30.8817 2.71335 30.8699 2.72213C30.6941 2.88294 30.4626 3.09053 30.2282 3.30104C29.9967 3.51156 29.7652 3.72207 29.5894 3.87996C29.5777 3.89166 29.5659 3.8975 29.5601 3.9092C29.5542 3.92382 29.5454 3.93259 29.5278 3.93551C29.4927 3.93551 29.4575 3.93551 29.4253 3.93551C29.3608 3.93551 29.3022 3.93551 29.2524 3.92967C29.1528 3.92382 29.0912 3.91212 29.0912 3.91212Z" fill="#FFC004"/>
<path d="M27.6671 2.85947C27.6671 2.85947 27.6378 2.80392 27.5968 2.7162C27.5763 2.66942 27.5528 2.61679 27.5323 2.55539C27.5206 2.52616 27.5089 2.49399 27.4972 2.45891C27.4913 2.44136 27.4972 2.42967 27.5089 2.4209C27.5177 2.4092 27.5206 2.39458 27.5294 2.37996C27.6173 2.16068 27.7345 1.87122 27.8517 1.57884C27.969 1.28938 28.0832 0.996993 28.1741 0.78063C28.177 0.768935 28.1858 0.754316 28.1858 0.739696C28.1858 0.725077 28.1917 0.710458 28.2092 0.70461C28.2415 0.689991 28.2708 0.675372 28.3001 0.660753C28.3558 0.631515 28.4114 0.608124 28.4554 0.590581C28.5462 0.552571 28.6048 0.532104 28.6048 0.532104C28.6048 0.532104 28.6312 0.587657 28.6722 0.675372C28.6898 0.71923 28.7162 0.774782 28.7367 0.833259C28.7484 0.865421 28.7601 0.894659 28.7719 0.929745C28.7807 0.947288 28.7748 0.961907 28.766 0.973603C28.7572 0.982374 28.7543 0.999917 28.7455 1.01161C28.6576 1.22798 28.5433 1.52036 28.4261 1.80982C28.3089 2.09928 28.1917 2.39166 28.1037 2.60802C28.0979 2.62264 28.092 2.63434 28.092 2.64896C28.092 2.66358 28.0891 2.67819 28.0744 2.68404C28.0422 2.70159 28.01 2.7162 27.9807 2.7279C27.9279 2.75714 27.8723 2.77761 27.8254 2.79807C27.7316 2.83608 27.673 2.85362 27.673 2.85362L27.6671 2.85947Z" fill="#FFC004"/>
<path d="M25.9851 2.49104C25.9851 2.49104 25.9324 2.45596 25.8562 2.39748C25.8151 2.36824 25.7683 2.33316 25.7243 2.2893C25.6979 2.26883 25.6745 2.24544 25.6481 2.22205C25.6335 2.21035 25.6335 2.19573 25.6393 2.18112C25.6393 2.1665 25.6393 2.15188 25.6393 2.13726C25.613 1.90335 25.5778 1.59343 25.5426 1.28058C25.5075 0.97065 25.4723 0.657801 25.4489 0.423894C25.4489 0.409275 25.4489 0.394656 25.4401 0.380037C25.4313 0.368341 25.4313 0.353722 25.4401 0.339103C25.4606 0.309865 25.4811 0.280627 25.4987 0.257236C25.5338 0.204607 25.5719 0.157826 25.6012 0.119816C25.6628 0.0437964 25.7067 -6.10352e-05 25.7067 -6.10352e-05C25.7067 -6.10352e-05 25.7565 0.0321011 25.8357 0.0935015C25.8738 0.12274 25.9206 0.16075 25.9646 0.201683C25.988 0.22215 26.0144 0.245541 26.0437 0.268931C26.0584 0.280627 26.0613 0.295246 26.0554 0.309865C26.0525 0.324484 26.0554 0.339103 26.0554 0.353722C26.0818 0.587629 26.117 0.897555 26.1492 1.2104C26.1844 1.52325 26.2195 1.83318 26.2459 2.06709C26.2459 2.08171 26.2459 2.09632 26.2547 2.10802C26.2635 2.12264 26.2664 2.13433 26.2547 2.15188C26.2342 2.17819 26.2137 2.20743 26.1961 2.23374C26.1609 2.28637 26.1228 2.33316 26.0906 2.37116C26.0291 2.44718 25.9822 2.49104 25.9822 2.49104H25.9851Z" fill="#FFC004"/>
<path d="M24.35 2.99986C24.35 2.99986 24.2885 2.98816 24.1947 2.96185C24.1478 2.95015 24.0892 2.93261 24.0306 2.90922C23.9983 2.89752 23.9661 2.88875 23.9339 2.87705C23.9163 2.87121 23.9104 2.85951 23.9075 2.84197C23.9075 2.82735 23.8958 2.81565 23.8899 2.80396C23.7756 2.59637 23.6262 2.32153 23.4797 2.04669C23.3302 1.77185 23.1808 1.49701 23.0665 1.28942C23.0577 1.27772 23.0548 1.2631 23.0431 1.25141C23.0313 1.24263 23.0226 1.23094 23.0313 1.21047C23.0401 1.17539 23.0489 1.14322 23.0548 1.11106C23.0665 1.04966 23.087 0.994108 23.1017 0.944403C23.128 0.850841 23.1515 0.795288 23.1515 0.795288C23.1515 0.795288 23.213 0.806983 23.3068 0.833298C23.3537 0.847917 23.4094 0.862536 23.468 0.885927C23.5002 0.897622 23.5324 0.906394 23.5647 0.921013C23.5822 0.92686 23.591 0.938556 23.591 0.953175C23.591 0.967794 23.6028 0.979489 23.6086 0.994108C23.72 1.19878 23.8723 1.47654 24.0218 1.75138C24.1712 2.02914 24.3207 2.30106 24.432 2.50865C24.4408 2.52327 24.4438 2.53497 24.4584 2.54374C24.4701 2.55251 24.4789 2.5642 24.4731 2.58467C24.4643 2.61976 24.4555 2.65192 24.4496 2.68408C24.4379 2.74548 24.4203 2.80103 24.4057 2.84782C24.3764 2.94138 24.3529 2.99986 24.3529 2.99986H24.35Z" fill="#FFC004"/>
</svg>
