<svg width="90" height="86" viewBox="0 0 90 86" fill="none" xmlns="http://www.w3.org/2000/svg">
<g filter="url(#filter0_d_21_756)">
<rect width="82.61" height="77.5" rx="14" fill="white"/>
</g>
<path d="M65.032 44.8657C65.032 54.4291 58.3795 58.5683 50.1732 58.5683C41.9669 58.5683 35.3135 54.4291 35.3135 44.8657C35.3135 35.3033 41.966 26.8282 50.1732 26.8282C58.3795 26.8282 65.032 35.3033 65.032 44.8657Z" fill="#FFC004"/>
<path d="M60.2147 19.3801C58.9675 18.725 55.8628 19.2431 53.3219 20.1461C52.6329 19.5124 51.7775 19.0847 50.8463 19.0847C49.7413 19.0847 48.7391 19.6848 48.0006 20.5225C45.3418 19.3987 41.5444 18.6384 40.1327 19.3801C38.5285 20.2243 40.6123 22.689 43.2075 24.0542C44.7183 24.849 46.0682 25.0932 47.2499 24.9935C47.9501 25.7892 49.2972 26.0753 50.8463 26.0753C52.4216 26.0753 53.7884 25.7799 54.4774 24.9525C55.3 24.836 56.1882 24.5546 57.1389 24.0542C59.7341 22.689 61.8189 20.2243 60.2147 19.3801Z" fill="#FFC004"/>
<path d="M54.884 27.3389C54.884 27.6958 54.5942 27.9856 54.2362 27.9856H46.1094C45.7513 27.9856 45.4615 27.6958 45.4615 27.3389V25.6159C45.4615 25.2581 45.7513 24.9692 46.1094 24.9692H54.2362C54.5942 24.9692 54.884 25.2581 54.884 25.6159V27.3389Z" fill="#719BF0"/>
<path d="M27.6588 52.4452C27.5148 52.4928 43.0093 50.5807 43.1944 54.6295C43.3272 57.5368 52.9143 58.3083 52.9143 58.3083C53.2191 58.3093 55.8339 58.504 55.8339 58.504L62.1293 54.4328C63.2605 53.201 65.2976 52.5813 66.5391 53.6837C67.5113 54.5447 65.6584 55.2379 64.5254 56.4698L57.5138 61.6993C57.3783 61.8474 56.7977 62.1018 55.8853 62.2332C51.8541 62.8212 48.5933 62.9964 41.8641 63.8919C39.7934 64.1677 38.1265 63.8667 37.4497 63.5387C34.8582 62.277 27.6569 62.2285 27.6569 62.2285L27.6588 52.4452Z" fill="#EACAB2"/>
<path d="M46.143 55.73C47.7529 56.6842 48.6625 56.6237 48.7616 56.6628L51.1371 54.5923C51.8878 53.7732 54.6045 53.4303 55.3562 54.2484C56.1087 55.0656 55.5572 55.1933 54.8046 56.0105L50.2032 59.8748C49.7806 60.3342 49.2113 60.5252 48.6606 60.4684C48.6017 60.4731 48.5475 60.488 48.4877 60.487L36.0913 61.0871C35.5304 61.0881 35.0115 60.897 34.5815 60.5737C32.3939 59.7211 30.8748 58.4864 30.8748 56.3534C30.8748 53.4088 33.7654 52.2217 37.33 52.2217C42.196 52.2198 43.4114 54.1114 46.143 55.73Z" fill="#FFDFC5"/>
<path d="M28.4159 52.0353H26.6359V62.5864H28.4159V52.0353Z" fill="white"/>
<path d="M16 51.4053L27.4942 51.4063L27.4933 63.1921H20.8155C18.5288 59.653 16.8657 55.6741 16 51.4053Z" fill="#719BF0"/>
<path d="M42.4602 33.4567H46.7407C48.0008 33.4567 48.9829 33.7461 49.687 34.3248C50.3912 34.8912 50.7433 35.7162 50.7433 36.7998C50.7433 37.514 50.558 38.142 50.1874 38.6838C49.8291 39.2256 49.335 39.6196 48.7049 39.8659L51.9848 44.428H49.1497L46.1848 40.1429H44.795V44.428H42.4602V33.4567ZM46.926 37.9819C47.9637 37.9819 48.4826 37.5879 48.4826 36.7998C48.4826 36.3688 48.3405 36.0733 48.0564 35.9133C47.7846 35.7532 47.3893 35.6731 46.8704 35.6731H44.795V37.9819H46.926Z" fill="white"/>
<path d="M53.008 47.6787V36.7629H55.2502V37.1692C55.6084 36.9476 55.9049 36.7937 56.1396 36.7075C56.3867 36.609 56.7203 36.5597 57.1403 36.5597C58.2521 36.5597 59.1724 36.9599 59.9013 37.7603C60.6425 38.5606 61.0131 39.5642 61.0131 40.7709C61.0131 41.953 60.6487 42.9442 59.9198 43.7446C59.191 44.5326 58.2706 44.9267 57.1588 44.9267C56.4794 44.9267 55.8432 44.7789 55.2502 44.4834V47.6787H53.008ZM55.1205 40.7524C55.1205 41.405 55.2872 41.916 55.6208 42.2854C55.9543 42.6548 56.4052 42.8395 56.9735 42.8395C57.5294 42.8395 57.9741 42.6487 58.3077 42.267C58.6412 41.8729 58.808 41.3558 58.808 40.7155C58.808 40.0998 58.6351 39.6011 58.2892 39.2194C57.9433 38.8254 57.4985 38.6284 56.955 38.6284C56.4238 38.6284 55.9852 38.8254 55.6393 39.2194C55.2934 39.6011 55.1205 40.1121 55.1205 40.7524Z" fill="white"/>
<path d="M40.0833 24.2188C40.0833 24.2188 40.1068 24.2773 40.1361 24.3708C40.1507 24.4176 40.1683 24.4761 40.18 24.5375C40.1859 24.5697 40.1947 24.6018 40.2035 24.6369C40.2093 24.6545 40.2006 24.6661 40.1859 24.6749C40.1742 24.6837 40.1712 24.6983 40.1625 24.71C40.0482 24.9176 39.8987 25.1895 39.7464 25.4644C39.594 25.7363 39.4416 26.0111 39.3302 26.2158C39.3244 26.2304 39.3127 26.2421 39.3127 26.2567C39.3127 26.2743 39.3039 26.283 39.2863 26.2889C39.2511 26.3006 39.2189 26.3123 39.1896 26.324C39.1281 26.3444 39.0724 26.359 39.0255 26.3737C38.9317 26.4 38.8702 26.4117 38.8702 26.4117C38.8702 26.4117 38.8497 26.3532 38.8204 26.2596C38.8057 26.2129 38.7911 26.1544 38.7764 26.0959C38.7676 26.0637 38.7588 26.0316 38.753 25.9965C38.7471 25.9789 38.753 25.9643 38.7647 25.9556C38.7735 25.9439 38.7793 25.9292 38.7881 25.9175C38.9024 25.7129 39.0519 25.438 39.2042 25.1632C39.3566 24.8884 39.509 24.6164 39.6203 24.4088C39.6262 24.3972 39.635 24.3825 39.6379 24.3679C39.6379 24.3533 39.6438 24.3387 39.6614 24.3358C39.6936 24.3241 39.7288 24.3124 39.7581 24.3007C39.8196 24.2802 39.8753 24.2656 39.9222 24.251C40.0159 24.2246 40.0804 24.213 40.0804 24.213L40.0833 24.2188Z" fill="#FFC004"/>
<path d="M38.7295 23.0784C38.7295 23.0784 38.7237 23.1398 38.7119 23.2392C38.7031 23.286 38.6943 23.3474 38.6768 23.4059C38.6709 23.4351 38.665 23.4702 38.6563 23.5053C38.6533 23.5228 38.6387 23.5287 38.624 23.5316C38.6094 23.5345 38.5976 23.5433 38.5859 23.5521C38.3955 23.6866 38.1347 23.8649 37.8797 24.0462C37.6218 24.2275 37.3669 24.4058 37.1735 24.5403C37.1618 24.5491 37.1501 24.5549 37.1413 24.5666C37.1325 24.5813 37.1208 24.5871 37.1032 24.5842C37.068 24.5813 37.0358 24.5754 37.0006 24.5725C36.9391 24.5637 36.8805 24.5549 36.8336 24.5462C36.7369 24.5286 36.6783 24.514 36.6783 24.514C36.6783 24.514 36.6841 24.4526 36.6988 24.3561C36.7076 24.3093 36.7193 24.2509 36.734 24.1895C36.7398 24.1602 36.7486 24.1251 36.7574 24.0901C36.7574 24.0725 36.7721 24.0608 36.7867 24.0579C36.8014 24.055 36.8101 24.0433 36.8219 24.0374C37.0153 23.9029 37.2731 23.7217 37.5281 23.5433C37.7859 23.3649 38.0438 23.1837 38.2343 23.0492C38.246 23.0404 38.2577 23.0346 38.2665 23.0229C38.2753 23.0082 38.2841 22.9995 38.3017 23.0024C38.3368 23.0053 38.372 23.0112 38.4042 23.0141C38.4658 23.0199 38.5244 23.0316 38.5742 23.0404C38.6709 23.0579 38.7295 23.0755 38.7295 23.0755V23.0784Z" fill="#FFC004"/>
<path d="M37.9852 21.5259C37.9852 21.5259 37.9501 21.5785 37.8915 21.6575C37.8622 21.6955 37.827 21.7452 37.783 21.7891C37.7596 21.8124 37.7391 21.8388 37.7156 21.8651C37.7039 21.8797 37.6922 21.8797 37.6746 21.8738C37.66 21.868 37.6453 21.8738 37.6307 21.8738C37.3962 21.9031 37.0856 21.9382 36.7721 21.9762C36.4615 22.0142 36.1479 22.0522 35.9164 22.0785C35.9018 22.0785 35.8871 22.0785 35.8725 22.0873C35.8578 22.0961 35.8461 22.0961 35.8314 22.0844C35.8021 22.0639 35.7758 22.0434 35.7494 22.0259C35.6966 21.9908 35.6498 21.9528 35.6117 21.9236C35.5355 21.8622 35.4915 21.8212 35.4915 21.8212C35.4915 21.8212 35.5237 21.7715 35.5824 21.6926C35.6117 21.6546 35.6498 21.6078 35.6908 21.561C35.7113 21.5347 35.7347 21.5113 35.7582 21.485C35.7699 21.4674 35.7816 21.4674 35.7992 21.4733C35.8139 21.4733 35.8285 21.4733 35.8432 21.4704C36.0747 21.444 36.3882 21.406 36.6988 21.368C37.0094 21.33 37.32 21.292 37.5545 21.2657C37.5691 21.2657 37.5838 21.2657 37.5984 21.2569C37.6101 21.2481 37.6248 21.2452 37.6394 21.2569C37.6687 21.2774 37.6951 21.2979 37.7215 21.3154C37.7742 21.3505 37.8211 21.3856 37.8592 21.4177C37.9354 21.4791 37.9823 21.523 37.9823 21.523L37.9852 21.5259Z" fill="#FFC004"/>
<path d="M38.1083 19.8213C38.1083 19.8213 38.0556 19.8593 37.9706 19.909C37.9296 19.9324 37.8768 19.9646 37.8211 19.9909C37.7918 20.0055 37.7625 20.0201 37.7303 20.0377C37.7127 20.0465 37.701 20.0406 37.6893 20.0318C37.6776 20.0231 37.6629 20.0231 37.6483 20.0172C37.4226 19.9558 37.1208 19.8739 36.816 19.7921C36.5142 19.7102 36.2095 19.6283 35.9838 19.564C35.9692 19.5611 35.9575 19.5552 35.9399 19.5552C35.9252 19.5611 35.9135 19.5552 35.9018 19.5377C35.8842 19.5085 35.8637 19.4792 35.8461 19.45C35.8109 19.3974 35.7816 19.3447 35.7582 19.3038C35.7113 19.2161 35.6849 19.1635 35.6849 19.1635C35.6849 19.1635 35.7348 19.1284 35.8197 19.0816C35.8637 19.0582 35.9135 19.026 35.9692 18.9997C35.9985 18.9851 36.0278 18.9705 36.06 18.9529C36.0776 18.9412 36.0923 18.9442 36.101 18.9559C36.1128 18.9646 36.1274 18.9646 36.1421 18.9705C36.3706 19.0319 36.6725 19.1138 36.9743 19.1985C37.2761 19.2804 37.5809 19.3623 37.8065 19.4237C37.8211 19.4237 37.8329 19.4324 37.8475 19.4295C37.8622 19.4295 37.8768 19.4295 37.8856 19.4441C37.9032 19.4734 37.9237 19.5026 37.9413 19.5289C37.9765 19.5816 38.0058 19.6342 38.0292 19.6781C38.0761 19.7628 38.1025 19.8213 38.1025 19.8213H38.1083Z" fill="#FFC004"/>
<path d="M38.9962 18.0963C38.9962 18.0963 38.9376 18.1109 38.8379 18.1284C38.7881 18.1343 38.7324 18.146 38.668 18.1489C38.6357 18.1489 38.6006 18.1547 38.5654 18.1577C38.5478 18.1577 38.5361 18.1489 38.5302 18.1372C38.5215 18.1255 38.5097 18.1196 38.498 18.1079C38.3105 17.9676 38.0555 17.7805 37.8065 17.5963C37.5544 17.4062 37.3024 17.222 37.112 17.0817C37.1002 17.0729 37.0915 17.0612 37.0768 17.0583C37.0622 17.0583 37.0504 17.0466 37.0475 17.0291C37.0416 16.994 37.0328 16.9589 37.027 16.9296C37.0123 16.8682 37.0065 16.8098 36.9977 16.7601C36.983 16.6636 36.9801 16.6022 36.9801 16.6022C36.9801 16.6022 37.0387 16.5876 37.1354 16.5729C37.1823 16.5671 37.2409 16.5583 37.3054 16.5525C37.3376 16.5525 37.3698 16.5466 37.4079 16.5437C37.4284 16.5408 37.4372 16.5466 37.446 16.5612C37.4548 16.5729 37.4695 16.5788 37.4783 16.5905C37.6658 16.7279 37.9207 16.915 38.1727 17.1022C38.4248 17.2893 38.6738 17.4764 38.8643 17.6138C38.876 17.6226 38.8877 17.6343 38.9024 17.6372C38.917 17.6401 38.9317 17.646 38.9317 17.6665C38.9376 17.7015 38.9464 17.7337 38.9522 17.7659C38.9669 17.8273 38.9727 17.8857 38.9815 17.9354C38.9932 18.0319 38.9962 18.0963 38.9962 18.0963Z" fill="#FFC004"/>
<path d="M45.0912 17.9121C45.0912 17.9121 45.0854 17.8507 45.0912 17.7513C45.0912 17.7016 45.0942 17.6431 45.1 17.5788C45.1029 17.5466 45.1059 17.5145 45.1117 17.4765C45.1117 17.4589 45.1235 17.4502 45.1381 17.4472C45.1528 17.4414 45.1616 17.4297 45.1733 17.4209C45.3462 17.266 45.5806 17.0525 45.8121 16.842C46.0436 16.6315 46.2751 16.421 46.4509 16.266C46.4626 16.2543 46.4743 16.2485 46.4831 16.2368C46.489 16.2222 46.4978 16.2134 46.5183 16.2134C46.5535 16.2134 46.5886 16.2134 46.6209 16.2134C46.6824 16.2134 46.7439 16.2163 46.7908 16.2192C46.8875 16.2251 46.9491 16.2338 46.9491 16.2338C46.9491 16.2338 46.9491 16.2952 46.9491 16.3917C46.9461 16.4414 46.9432 16.4999 46.9373 16.5613C46.9344 16.5935 46.9315 16.6256 46.9285 16.6636C46.9285 16.6841 46.9198 16.6929 46.9051 16.6958C46.8904 16.7017 46.8817 16.7134 46.8699 16.7221C46.6941 16.8829 46.4626 17.0905 46.2282 17.301C45.9967 17.5116 45.7652 17.7221 45.5894 17.88C45.5777 17.8917 45.5659 17.8975 45.5601 17.9092C45.5542 17.9238 45.5454 17.9326 45.5278 17.9355C45.4927 17.9355 45.4575 17.9355 45.4253 17.9355C45.3608 17.9355 45.3022 17.9355 45.2524 17.9297C45.1528 17.9238 45.0912 17.9121 45.0912 17.9121Z" fill="#FFC004"/>
<path d="M43.6671 16.8595C43.6671 16.8595 43.6378 16.8039 43.5968 16.7162C43.5763 16.6694 43.5528 16.6168 43.5323 16.5554C43.5206 16.5262 43.5089 16.494 43.4972 16.4589C43.4913 16.4414 43.4972 16.4297 43.5089 16.4209C43.5177 16.4092 43.5206 16.3946 43.5294 16.38C43.6173 16.1607 43.7345 15.8712 43.8517 15.5788C43.969 15.2894 44.0832 14.997 44.1741 14.7806C44.177 14.7689 44.1858 14.7543 44.1858 14.7397C44.1858 14.7251 44.1917 14.7105 44.2092 14.7046C44.2415 14.69 44.2708 14.6754 44.3001 14.6608C44.3558 14.6315 44.4114 14.6081 44.4554 14.5906C44.5462 14.5526 44.6048 14.5321 44.6048 14.5321C44.6048 14.5321 44.6312 14.5877 44.6722 14.6754C44.6898 14.7192 44.7162 14.7748 44.7367 14.8333C44.7484 14.8654 44.7601 14.8947 44.7719 14.9297C44.7807 14.9473 44.7748 14.9619 44.766 14.9736C44.7572 14.9824 44.7543 14.9999 44.7455 15.0116C44.6576 15.228 44.5433 15.5204 44.4261 15.8098C44.3089 16.0993 44.1917 16.3917 44.1037 16.608C44.0979 16.6226 44.092 16.6343 44.092 16.649C44.092 16.6636 44.0891 16.6782 44.0744 16.684C44.0422 16.7016 44.01 16.7162 43.9807 16.7279C43.9279 16.7571 43.8723 16.7776 43.8254 16.7981C43.7316 16.8361 43.673 16.8536 43.673 16.8536L43.6671 16.8595Z" fill="#FFC004"/>
<path d="M41.9851 16.491C41.9851 16.491 41.9324 16.456 41.8562 16.3975C41.8151 16.3682 41.7683 16.3332 41.7243 16.2893C41.6979 16.2688 41.6745 16.2454 41.6481 16.222C41.6335 16.2104 41.6335 16.1957 41.6393 16.1811C41.6393 16.1665 41.6393 16.1519 41.6393 16.1373C41.613 15.9034 41.5778 15.5934 41.5426 15.2806C41.5075 14.9707 41.4723 14.6578 41.4489 14.4239C41.4489 14.4093 41.4489 14.3947 41.4401 14.38C41.4313 14.3683 41.4313 14.3537 41.4401 14.3391C41.4606 14.3099 41.4811 14.2806 41.4987 14.2572C41.5338 14.2046 41.5719 14.1578 41.6012 14.1198C41.6628 14.0438 41.7067 13.9999 41.7067 13.9999C41.7067 13.9999 41.7565 14.0321 41.8357 14.0935C41.8738 14.1227 41.9206 14.1607 41.9646 14.2017C41.988 14.2222 42.0144 14.2455 42.0437 14.2689C42.0584 14.2806 42.0613 14.2952 42.0554 14.3099C42.0525 14.3245 42.0554 14.3391 42.0554 14.3537C42.0818 14.5876 42.117 14.8976 42.1492 15.2104C42.1844 15.5233 42.2195 15.8332 42.2459 16.0671C42.2459 16.0817 42.2459 16.0963 42.2547 16.108C42.2635 16.1226 42.2664 16.1343 42.2547 16.1519C42.2342 16.1782 42.2137 16.2074 42.1961 16.2337C42.1609 16.2864 42.1228 16.3332 42.0906 16.3712C42.0291 16.4472 41.9822 16.491 41.9822 16.491H41.9851Z" fill="#FFC004"/>
<path d="M40.35 16.9999C40.35 16.9999 40.2885 16.9882 40.1947 16.9618C40.1478 16.9502 40.0892 16.9326 40.0306 16.9092C39.9983 16.8975 39.9661 16.8887 39.9339 16.8771C39.9163 16.8712 39.9104 16.8595 39.9075 16.842C39.9075 16.8273 39.8958 16.8157 39.8899 16.804C39.7756 16.5964 39.6262 16.3215 39.4797 16.0467C39.3302 15.7718 39.1808 15.497 39.0665 15.2894C39.0577 15.2777 39.0548 15.2631 39.0431 15.2514C39.0313 15.2426 39.0226 15.2309 39.0313 15.2105C39.0401 15.1754 39.0489 15.1432 39.0548 15.1111C39.0665 15.0497 39.087 14.9941 39.1017 14.9444C39.128 14.8508 39.1515 14.7953 39.1515 14.7953C39.1515 14.7953 39.213 14.807 39.3068 14.8333C39.3537 14.8479 39.4094 14.8625 39.468 14.8859C39.5002 14.8976 39.5324 14.9064 39.5647 14.921C39.5822 14.9269 39.591 14.9386 39.591 14.9532C39.591 14.9678 39.6028 14.9795 39.6086 14.9941C39.72 15.1988 39.8723 15.4765 40.0218 15.7514C40.1712 16.0291 40.3207 16.3011 40.432 16.5087C40.4408 16.5233 40.4438 16.535 40.4584 16.5437C40.4701 16.5525 40.4789 16.5642 40.4731 16.5847C40.4643 16.6198 40.4555 16.6519 40.4496 16.6841C40.4379 16.7455 40.4203 16.801 40.4057 16.8478C40.3764 16.9414 40.3529 16.9999 40.3529 16.9999H40.35Z" fill="#FFC004"/>
<defs>
<filter id="filter0_d_21_756" x="-1.19209e-07" y="0" width="89.55" height="85.6" filterUnits="userSpaceOnUse" color-interpolation-filters="sRGB">
<feFlood flood-opacity="0" result="BackgroundImageFix"/>
<feColorMatrix in="SourceAlpha" type="matrix" values="0 0 0 0 0 0 0 0 0 0 0 0 0 0 0 0 0 0 127 0" result="hardAlpha"/>
<feMorphology radius="1.16" operator="erode" in="SourceAlpha" result="effect1_dropShadow_21_756"/>
<feOffset dx="3.47" dy="4.63"/>
<feGaussianBlur stdDeviation="2.315"/>
<feComposite in2="hardAlpha" operator="out"/>
<feColorMatrix type="matrix" values="0 0 0 0 0.682353 0 0 0 0 0.682353 0 0 0 0 0.701961 0 0 0 0.5 0"/>
<feBlend mode="normal" in2="BackgroundImageFix" result="effect1_dropShadow_21_756"/>
<feBlend mode="normal" in="SourceGraphic" in2="effect1_dropShadow_21_756" result="shape"/>
</filter>
</defs>
</svg>
